<svg xmlns="http://www.w3.org/2000/svg" aria-hidden="true" style="position:absolute;width:0;height:0;overflow:hidden">
    <defs>
        <symbol id="category" viewBox="0 0 32 32">
            <path stroke-width="1.333"
                d="M6.333 4.667h6c.92 0 1.667.746 1.667 1.667v6c0 .92-.746 1.667-1.667 1.667h-6c-.92 0-1.667-.746-1.667-1.667v-6c0-.92.746-1.667 1.667-1.667zM6.333 18h6c.92 0 1.667.746 1.667 1.667v6c0 .92-.746 1.667-1.667 1.667h-6c-.92 0-1.667-.746-1.667-1.667v-6c0-.92.746-1.667 1.667-1.667zM19.667 4.667h6c.92 0 1.667.746 1.667 1.667v6c0 .92-.746 1.667-1.667 1.667h-6c-.92 0-1.667-.746-1.667-1.667v-6c0-.92.746-1.667 1.667-1.667zM19.667 18h6c.92 0 1.667.746 1.667 1.667v6c0 .92-.746 1.667-1.667 1.667h-6c-.92 0-1.667-.746-1.667-1.667v-6c0-.92.746-1.667 1.667-1.667z" />
        </symbol>
        <symbol id="filter" viewBox="0 0 32 32">
            <path stroke-linecap="round" stroke-linejoin="round" stroke-width="1.333" d="M28 9.333H14.667" />
            <path stroke-width="1.333" d="M4 9.333a2.667 2.667 0 1 0 5.334 0 2.667 2.667 0 0 0-5.334 0z" />
            <path stroke-linecap="round" stroke-linejoin="round" stroke-width="1.333" d="M4 22.667h13.333" />
            <path stroke-width="1.333" d="M28 22.667a2.667 2.667 0 1 1-5.334 0 2.667 2.667 0 0 1 5.334 0z" />
        </symbol>
        <symbol id="arrow" viewBox="0 0 32 32">
            <path stroke-linecap="round" stroke-width="1.333"
                d="m14.667 12-3.057 3.057a1.333 1.333 0 0 0 0 1.886L14.667 20M12 16h9.333M16 2.667C8.636 2.667 2.667 8.637 2.667 16S8.637 29.333 16 29.333c7.364 0 13.333-5.97 13.333-13.333S23.363 2.667 16 2.667z" />
        </symbol>
        <symbol id="shield" viewBox="0 0 32 32">
            <path stroke-width="1.333"
                d="M5.333 8.985c0-.242.131-.465.343-.583l10-5.556a.665.665 0 0 1 .647 0l10 5.556a.667.667 0 0 1 .343.583v10.5a6.668 6.668 0 0 1-3.429 5.828l-6.914 3.841a.665.665 0 0 1-.647 0l-6.914-3.841a6.668 6.668 0 0 1-3.429-5.828v-10.5z" />
            <path stroke-linecap="round" stroke-linejoin="round" stroke-width="1.333"
                d="m12.667 16 2.667 2.667 5.333-5.333" />
        </symbol>
        <symbol id="star" viewBox="0 0 32 32">
            <path
                d="M14.402 2.291c.51-1.538 2.686-1.538 3.197 0l2.556 7.703a1.685 1.685 0 0 0 1.598 1.154h8.195c1.64 0 2.313 2.106.976 3.057l-6.569 4.673a1.684 1.684 0 0 0-.622 1.903l2.523 7.604c.513 1.546-1.248 2.847-2.575 1.903l-6.706-4.771a1.684 1.684 0 0 0-1.953 0l-6.706 4.771c-1.327.944-3.088-.357-2.575-1.903l2.523-7.604a1.684 1.684 0 0 0-.622-1.903l-6.569-4.673c-1.336-.951-.664-3.057.976-3.057h8.195c.726 0 1.37-.465 1.598-1.154l2.556-7.703z" />
        </symbol>
    </defs>
</svg>